<?xml version="1.0" encoding="UTF-8" standalone="no"?>
<!-- Created with Inkscape (http://www.inkscape.org/) -->

<svg
   xmlns:dc="http://purl.org/dc/elements/1.1/"
   xmlns:cc="http://creativecommons.org/ns#"
   xmlns:rdf="http://www.w3.org/1999/02/22-rdf-syntax-ns#"
   xmlns:svg="http://www.w3.org/2000/svg"
   xmlns="http://www.w3.org/2000/svg"
   xmlns:sodipodi="http://sodipodi.sourceforge.net/DTD/sodipodi-0.dtd"
   xmlns:inkscape="http://www.inkscape.org/namespaces/inkscape"
   width="50mm"
   height="50mm"
   viewBox="0 0 50 50"
   version="1.1"
   id="svg8"
   inkscape:version="0.92.2 (5c3e80d, 2017-08-06)"
   sodipodi:docname="logo.svg"
   inkscape:export-filename="\\apa-store\peter\src\sunrise\logo.png"
   inkscape:export-xdpi="127"
   inkscape:export-ydpi="127">
  <defs
     id="defs2" />
  <sodipodi:namedview
     id="base"
     pagecolor="#ffffff"
     bordercolor="#666666"
     borderopacity="1.0"
     inkscape:pageopacity="0.0"
     inkscape:pageshadow="2"
     inkscape:zoom="5.7526536"
     inkscape:cx="98.767336"
     inkscape:cy="106.89133"
     inkscape:document-units="mm"
     inkscape:current-layer="layer1"
     showgrid="false"
     fit-margin-top="0"
     fit-margin-left="0"
     fit-margin-right="0"
     fit-margin-bottom="0"
     inkscape:window-width="3840"
     inkscape:window-height="2035"
     inkscape:window-x="-13"
     inkscape:window-y="-13"
     inkscape:window-maximized="1" />
  <metadata
     id="metadata5">
    <rdf:RDF>
      <cc:Work
         rdf:about="">
        <dc:format>image/svg+xml</dc:format>
        <dc:type
           rdf:resource="http://purl.org/dc/dcmitype/StillImage" />
        <dc:title />
      </cc:Work>
    </rdf:RDF>
  </metadata>
  <g
     inkscape:label="Layer 1"
     inkscape:groupmode="layer"
     id="layer1"
     transform="translate(-48.167074,-67.176339)">
    <flowRoot
       xml:space="preserve"
       id="flowRoot850"
       style="font-style:normal;font-variant:normal;font-weight:normal;font-stretch:normal;font-size:13.33333302px;line-height:1.25;font-family:Arial;-inkscape-font-specification:Arial;letter-spacing:0px;word-spacing:0px;fill:#000000;fill-opacity:1;stroke:none"
       transform="matrix(0.24778579,0.09277144,-0.09277144,0.24778579,33.090435,-21.160891)"><flowRegion
         id="flowRegion852"
         style="font-style:normal;font-variant:normal;font-weight:normal;font-stretch:normal;font-family:Arial;-inkscape-font-specification:Arial"><rect
           id="rect854"
           width="163.98013"
           height="24.253132"
           x="187.99193"
           y="415.67969"
           style="font-style:normal;font-variant:normal;font-weight:normal;font-stretch:normal;font-family:Arial;-inkscape-font-specification:Arial" /></flowRegion><flowPara
         id="flowPara856" /></flowRoot>    <g
       id="g916">
      <path
         id="path815"
         transform="matrix(0.26458333,0,0,0.26458333,48.167074,67.176339)"
         d="M 30.558594 37.582031 A 33.506268 33.481271 20.52599 0 0 15.923828 41.193359 A 283.46457 283.46457 0 0 1 61.474609 84.875 A 33.506268 33.481271 20.52599 0 0 62.367188 82.8125 A 33.506268 33.481271 20.52599 0 0 42.728516 39.707031 A 33.506268 33.481271 20.52599 0 0 30.558594 37.582031 z "
         style="opacity:1;fill:#ff0065;fill-opacity:1;stroke:none;stroke-width:0.7940442;stroke-miterlimit:4;stroke-dasharray:none;stroke-opacity:1" />
      <path
         id="path815-9"
         transform="matrix(0.26458333,0,0,0.26458333,48.167074,67.176339)"
         d="M 61.328125 46.541016 A 36.074672 36.054058 20.52599 0 0 35.601562 57.787109 A 283.46457 283.46457 0 0 1 81.75 112.5918 A 36.074672 36.054058 20.52599 0 0 95.570312 95.244141 A 36.074672 36.054058 20.52599 0 0 74.427734 48.830078 A 36.074672 36.054058 20.52599 0 0 61.328125 46.541016 z "
         style="opacity:1;fill:#ff4600;fill-opacity:1;stroke:none;stroke-width:0.85498589;stroke-miterlimit:4;stroke-dasharray:none;stroke-opacity:1" />
      <path
         transform="matrix(0.26458333,0,0,0.26458333,48.167074,67.176339)"
         id="path815-8"
         d="M 92.09375 55.378906 A 38.761979 38.747503 20.52599 0 0 56.808594 79.326172 A 283.46457 283.46457 0 0 1 93.814453 132.82617 A 38.761979 38.747503 20.52599 0 0 128.88672 107.7168 A 38.761979 38.747503 20.52599 0 0 106.17188 57.837891 A 38.761979 38.747503 20.52599 0 0 92.09375 55.378906 z "
         style="opacity:1;fill:#ff9300;fill-opacity:1;stroke:none;stroke-width:0.91876721;stroke-miterlimit:4;stroke-dasharray:none;stroke-opacity:1" />
      <circle
         transform="rotate(20.52599)"
         r="11"
         cy="60.75631"
         cx="109.03803"
         id="path815-4"
         style="opacity:1;fill:#ffcd00;fill-opacity:1;stroke:none;stroke-width:0.26077944;stroke-miterlimit:4;stroke-dasharray:none;stroke-opacity:1" />
    </g>
  </g>
</svg>
